<svg preserveAspectRatio="none" xmlns="http://www.w3.org/2000/svg"><g fill="none" fill-rule="evenodd"><path d="M1.98 395H1440l-.437-78.286c-41.86-40.13-80.004-60.195-114.43-60.195-117.486 0-195.478 127.644-276.02 127.637-132.747-.01-141.569-143.626-222.27-146.423-64.542-2.236-82.846 84.155-130.715 116.426-26.05 17.563-78.992.335-112.093-17.314-93.922-50.079-137.387-256.492-267.605-112.097-1.494 1.656-2.995-6.744-4.503-5.202C181.952 352.451-.513 45.524 0 4.8.397-26.546 1.057 103.52 1.98 395z" fill="#FFF" opacity=".05"/><path d="M0 370.993h1310c-54.736-89.177-120.975-126.093-198.718-110.748-116.614 23.018-77.917 110.748-164.902 110.748-8.658 0-71.784.015-79.808 0-132.904-.25-152.525-149.441-253.25-149.441-72.007 0-96.765 127.53-143.959 133.673-18.82 2.45-77.463-61.714-111.58-79.375-119.664-61.946-88.947-211.18-237.945-144.574C13.698 178.724 0 53.338 0 4.822v366.171z" fill="#FFF" opacity=".282"/><path d="M0 371h1440c-54.061-73.166-120.3-109.749-198.718-109.749-117.625 0-180.282 92.574-260.919 92.568C847.457 353.808 820.724 209.018 720 209.018c-100.724 0-168.182 116.98-262.217 66.837-94.034-50.142-78.947-211.184-227.945-144.576C123.698 178.727 0 53.339 0 4.822V371z" fill="#EEE" opacity=".175"/><path d="M0 371h1440c-52.153-60.093-117.438-90.139-195.855-90.139-117.626 0-183.145 72.964-263.782 72.958C847.457 353.808 820.724 235.424 720 235.424c-100.724 0-168.182 90.574-262.217 40.431-94.034-50.142-84.182-193.264-233.18-126.656C118.463 196.647 0 53.339 0 4.822V371z" fill="#EFEFEF"/><path d="M0 547.189h1440V371c-52.153-60.093-117.438-90.139-195.855-90.139-117.626 0-186.344 90.146-266.98 90.139-132.907-.01-156.44-135.576-257.165-135.576-100.724 0-166.016 114.84-260.05 64.697-94.035-50.142-77.92-201.685-226.917-135.078C126.893 212.493 0 53.34 0 4.822v542.367z" fill="#F3F3F3"/></g></svg>