<?xml version="1.0" encoding="utf-8"?>
<!-- Generator: Adobe Illustrator 24.1.1, SVG Export Plug-In . SVG Version: 6.00 Build 0)  -->
<svg version="1.1" id="Layer_1" xmlns="http://www.w3.org/2000/svg" xmlns:xlink="http://www.w3.org/1999/xlink" x="0px" y="0px"
	 viewBox="0 0 297.5 296" style="enable-background:new 0 0 297.5 296;" xml:space="preserve">
<style type="text/css">
	.st0{fill:#C4DBE5;}
	.st1{fill:#2A3B8B;}
</style>
<circle class="st0" cx="138" cy="158" r="138"/>
<path class="st1" d="M80.4,112.2c10.7-0.5,17.4,4.4,23.5,11.1c10.8,12.4,21.8,24.7,32.1,37.6c4.2,5.3,6.6,5.5,11,0
	c38.9-47.4,78.2-94.5,117.4-141.6c4.7-5.7,9-11.6,15.1-15.9c4.2-2.9,9-5.2,13.9-1.9c5.2,3.6,4.4,9.2,2.9,14.3
	c-1.9,6.6-5.8,12.3-9.7,17.9c-39,60.8-78.2,121.6-117.2,182.4c-4.2,6.6-8.4,13.4-16.3,16.4c-10.7,4.1-20.6,2.2-28.1-6.1
	c-21.1-23.9-41.9-48.2-62.6-72.8c-6.9-8.2-8.4-18.1-3.2-27.9C64.1,117.4,71.3,112.2,80.4,112.2z"/>
</svg>
